<svg width="64" height="64" viewBox="0 0 64 64" fill="none" xmlns="http://www.w3.org/2000/svg">
  <!-- Background -->
  <rect width="64" height="64" rx="12" fill="#E0E7FF"/>
  
  <!-- Book icon -->
  <g transform="translate(16, 14)">
    <!-- Left page -->
    <path d="M2 6C2 4.89543 2.89543 4 4 4H14V32H4C2.89543 32 2 31.1046 2 30V6Z" fill="#6366F1"/>
    <!-- Right page -->
    <path d="M18 4H28C29.1046 4 30 4.89543 30 6V30C30 31.1046 29.1046 32 28 32H18V4Z" fill="#6366F1"/>
    <!-- Center binding -->
    <rect x="15" y="4" width="2" height="28" fill="#4F46E5"/>
    <!-- Page lines - left -->
    <line x1="6" y1="12" x2="12" y2="12" stroke="#E0E7FF" stroke-width="1.5" stroke-linecap="round"/>
    <line x1="6" y1="16" x2="12" y2="16" stroke="#E0E7FF" stroke-width="1.5" stroke-linecap="round"/>
    <line x1="6" y1="20" x2="12" y2="20" stroke="#E0E7FF" stroke-width="1.5" stroke-linecap="round"/>
    <!-- Page lines - right -->
    <line x1="20" y1="12" x2="26" y2="12" stroke="#E0E7FF" stroke-width="1.5" stroke-linecap="round"/>
    <line x1="20" y1="16" x2="26" y2="16" stroke="#E0E7FF" stroke-width="1.5" stroke-linecap="round"/>
    <line x1="20" y1="20" x2="26" y2="20" stroke="#E0E7FF" stroke-width="1.5" stroke-linecap="round"/>
  </g>
</svg>
